<svg xmlns="http://www.w3.org/2000/svg" viewBox="0 0 30 41" fill="none"><path d="M0 0.558716V23.2477C0 27.7947 1.72257 32.2022 4.91942 35.4301C5.29187 35.8026 5.69536 36.1751 6.12989 36.5475C10.801 40.4739 15.9222 40.8153 17.443 40.8618V18.3902C17.443 14.2466 16.0308 10.2116 13.315 7.07675C13.1909 6.93707 13.0823 6.81292 12.9581 6.67325C8.0542 1.35019 1.62946 0.66735 0 0.558716Z" fill="#1FCE8A"/><path d="M29.92 7.71301V19.492C29.92 21.8509 29.0199 24.1477 27.375 25.8238C27.1732 26.0256 26.9715 26.2118 26.7542 26.398C24.3333 28.431 21.6796 28.6173 20.8882 28.6328V16.9779C20.8882 14.8363 21.6175 12.7257 23.0297 11.1117C23.0918 11.0341 23.1539 10.972 23.216 10.91C25.7455 8.11652 29.0665 7.77509 29.92 7.71301Z" fill="#F4A259"/></svg>
